<svg width="26" height="26" viewBox="0 0 26 26" fill="none" xmlns="http://www.w3.org/2000/svg">
<path d="M11.5556 26V14.4806C10.0148 14.4806 8.53426 14.1856 7.11389 13.5958C5.69352 13.006 4.44167 12.1694 3.35833 11.0861C2.275 10.0028 1.44444 8.75093 0.866667 7.33056C0.288889 5.91019 0 4.42963 0 2.88889V0H2.88889C4.40556 0 5.87407 0.294907 7.29444 0.884722C8.71482 1.47454 9.96667 2.31111 11.05 3.39444C11.7963 4.14074 12.4162 4.95926 12.9097 5.85C13.4032 6.74074 13.7824 7.69167 14.0472 8.70278C14.1676 8.53426 14.3 8.37176 14.4444 8.21528C14.5889 8.0588 14.7454 7.8963 14.9139 7.72778C15.9972 6.64444 17.2491 5.80787 18.6694 5.21806C20.0898 4.62824 21.5704 4.33333 23.1111 4.33333H26V7.22222C26 8.76296 25.7051 10.2435 25.1153 11.6639C24.5255 13.0843 23.6889 14.3361 22.6056 15.4194C21.5222 16.5028 20.2764 17.3333 18.8681 17.9111C17.4597 18.4889 15.9852 18.7778 14.4444 18.7778V26H11.5556ZM11.5556 11.5556C11.5556 10.4 11.3329 9.29861 10.8875 8.25139C10.4421 7.20417 9.81019 6.2713 8.99167 5.45278C8.17315 4.63426 7.24028 4.00232 6.19306 3.55694C5.14583 3.11157 4.04444 2.88889 2.88889 2.88889C2.88889 4.04444 3.10556 5.15185 3.53889 6.21111C3.97222 7.27037 4.59815 8.20926 5.41667 9.02778C6.23519 9.8463 7.17407 10.4722 8.23333 10.9056C9.29259 11.3389 10.4 11.5556 11.5556 11.5556ZM14.4444 15.8889C15.6 15.8889 16.7014 15.6722 17.7486 15.2389C18.7958 14.8056 19.7287 14.1796 20.5472 13.3611C21.3657 12.5426 21.9977 11.6037 22.4431 10.5444C22.8884 9.48519 23.1111 8.37778 23.1111 7.22222C21.9556 7.22222 20.8481 7.44491 19.7889 7.89028C18.7296 8.33565 17.7907 8.96759 16.9722 9.78611C16.1537 10.6046 15.5278 11.5375 15.0944 12.5847C14.6611 13.6319 14.4444 14.7333 14.4444 15.8889Z" fill="#6EC048"/>
</svg>
